<svg width="24" height="24" viewBox="0 0 24 24" fill="none" xmlns="http://www.w3.org/2000/svg">
<path d="M19.3602 3.35986H4.63571C3.93155 3.35986 3.36011 3.91786 3.36011 4.60498V19.3931C3.36011 20.0811 3.93155 20.6399 4.63571 20.6399H19.3602C20.0648 20.6399 20.6401 20.0811 20.6401 19.3931V4.60498C20.6401 3.91786 20.0648 3.35986 19.3602 3.35986ZM8.48507 18.0848H5.92091V9.83866H8.48507V18.0848ZM7.20299 8.71114C6.38147 8.71114 5.71739 8.04538 5.71739 7.22458C5.71739 6.40498 6.38147 5.73922 7.20299 5.73922C8.02259 5.73922 8.68835 6.40498 8.68835 7.22458C8.68835 8.04538 8.02259 8.71114 7.20299 8.71114ZM18.0841 18.0848H15.524V14.0749C15.524 13.1183 15.5053 11.8883 14.1918 11.8883C12.8579 11.8883 12.6546 12.9301 12.6546 14.0055V18.0851H10.0926V9.83866H12.5514V10.9647H12.5864C12.9287 10.3167 13.7648 9.63298 15.0119 9.63298C17.6053 9.63298 18.0843 11.3403 18.0843 13.5615L18.0841 18.0848Z" fill="#71AFBD"/>
</svg>
