<svg width="24" height="24" viewBox="0 0 24 24" fill="none" xmlns="http://www.w3.org/2000/svg">
<path d="M7.434 17.156C6.732 17.156 6.07767 17.0433 5.471 16.818C4.873 16.584 4.353 16.2547 3.911 15.83C3.469 15.4053 3.12233 14.907 2.871 14.335C2.62833 13.763 2.507 13.1347 2.507 12.45C2.507 11.7653 2.62833 11.137 2.871 10.565C3.12233 9.993 3.469 9.49467 3.911 9.07C4.36167 8.64533 4.886 8.32033 5.484 8.095C6.082 7.861 6.73633 7.744 7.447 7.744C8.23567 7.744 8.94633 7.88267 9.579 8.16C10.2203 8.42867 10.7577 8.82733 11.191 9.356L9.839 10.604C9.527 10.2487 9.18033 9.98433 8.799 9.811C8.41767 9.629 8.00167 9.538 7.551 9.538C7.12633 9.538 6.73633 9.60733 6.381 9.746C6.02567 9.88467 5.718 10.084 5.458 10.344C5.198 10.604 4.99433 10.9117 4.847 11.267C4.70833 11.6223 4.639 12.0167 4.639 12.45C4.639 12.8833 4.70833 13.2777 4.847 13.633C4.99433 13.9883 5.198 14.296 5.458 14.556C5.718 14.816 6.02567 15.0153 6.381 15.154C6.73633 15.2927 7.12633 15.362 7.551 15.362C8.00167 15.362 8.41767 15.2753 8.799 15.102C9.18033 14.92 9.527 14.647 9.839 14.283L11.191 15.531C10.7577 16.0597 10.2203 16.4627 9.579 16.74C8.94633 17.0173 8.23133 17.156 7.434 17.156ZM15.3051 17L11.3791 7.9H13.6541L17.0861 15.96H15.7471L19.2311 7.9H21.3241L17.3851 17H15.3051Z" fill="#71AFBD"/>
</svg>
