<svg width="24" height="24" viewBox="0 0 24 24" fill="none" xmlns="http://www.w3.org/2000/svg">
<path d="M19.6969 9.9625C19.8188 9.86563 20 9.95625 20 10.1094V16.5C20 17.3281 19.3281 18 18.5 18H5.5C4.67188 18 4 17.3281 4 16.5V10.1125C4 9.95625 4.17812 9.86875 4.30312 9.96563C5.00312 10.5094 5.93125 11.2 9.11875 13.5156C9.77813 13.9969 10.8906 15.0094 12 15.0031C13.1156 15.0125 14.25 13.9781 14.8844 13.5156C18.0719 11.2 18.9969 10.5063 19.6969 9.9625ZM12 14C12.725 14.0125 13.7687 13.0875 14.2937 12.7063C18.4406 9.69687 18.7563 9.43438 19.7125 8.68438C19.8938 8.54375 20 8.325 20 8.09375V7.5C20 6.67188 19.3281 6 18.5 6H5.5C4.67188 6 4 6.67188 4 7.5V8.09375C4 8.325 4.10625 8.54063 4.2875 8.68438C5.24375 9.43125 5.55938 9.69687 9.70625 12.7063C10.2313 13.0875 11.275 14.0125 12 14Z" fill="#71AFBD"/>
</svg>
