<svg width="18" height="24" viewBox="0 0 18 24" fill="none" xmlns="http://www.w3.org/2000/svg">
<path d="M16.1136 4.9998V3.72329L17.0401 3H7.01396L0.959717 8.26283H4.97485C4.96756 8.36243 4.96457 8.4525 4.96457 8.55465C4.96457 9.53175 5.30297 10.34 5.98045 10.9856C6.65793 11.6324 7.49223 11.9535 8.48013 11.9535C8.7109 11.9535 8.93719 11.9363 9.15693 11.9055C9.02065 12.2102 8.95187 12.4925 8.95187 12.7559C8.95187 13.2188 9.16277 13.7136 9.58314 14.2391C7.74406 14.3643 6.39278 14.6953 5.53141 15.2311C5.03777 15.5358 4.64077 15.9204 4.34124 16.381C4.04168 16.8451 3.89228 17.3427 3.89228 17.8792C3.89228 18.3315 3.98895 18.7387 4.1838 19.1009C4.37864 19.4631 4.63276 19.7605 4.94843 19.9908C5.26335 20.2237 5.62667 20.4174 6.03682 20.5753C6.44624 20.732 6.85275 20.8433 7.25844 20.9063C7.66283 20.9692 8.06491 21 8.4634 21C9.09475 21 9.72684 20.9187 10.364 20.7569C10.9997 20.5935 11.5959 20.3518 12.1533 20.0306C12.7092 19.7117 13.1618 19.2766 13.509 18.7313C13.8554 18.1838 14.0291 17.5686 14.0291 16.8875C14.0291 16.3711 13.9236 15.9013 13.7127 15.4746C13.5032 15.0494 13.2468 14.6993 12.9414 14.4272C12.6367 14.1548 12.3321 13.9043 12.0267 13.6787C11.7219 13.4516 11.4642 13.2217 11.2547 12.9844C11.0445 12.7478 10.939 12.5131 10.939 12.282C10.939 12.0513 11.0203 11.8286 11.1835 11.6133C11.3454 11.3972 11.5432 11.1892 11.7746 10.9896C12.006 10.7904 12.2375 10.5692 12.4682 10.3271C12.6989 10.0858 12.8967 9.77272 13.0593 9.38924C13.2226 9.00584 13.3032 8.57151 13.3032 8.08814C13.3032 7.45754 13.1838 6.94155 12.9494 6.52657C12.9216 6.47864 12.8923 6.44204 12.8615 6.3849L15.529 4.19715V4.99958C15.1824 5.04316 15.2185 5.25016 15.2185 5.4981V11.5294C15.2185 11.8087 15.447 12.0372 15.7264 12.0372H15.9133C16.1926 12.0372 16.4212 11.8087 16.4212 11.5294V5.4981C16.4212 5.25076 16.4576 5.04398 16.1136 4.9998ZM11.0811 15.4285C11.1346 15.4637 11.2547 15.5588 11.4429 15.7115C11.6327 15.8636 11.7615 15.9785 11.8303 16.0591C11.8978 16.1371 11.9981 16.2543 12.1292 16.4129C12.2611 16.571 12.3504 16.7084 12.3973 16.8223C12.4441 16.9384 12.4918 17.0783 12.5401 17.2416C12.5863 17.4031 12.6097 17.5686 12.6097 17.7367C12.6097 18.5358 12.302 19.1279 11.6883 19.5113C11.0731 19.8948 10.3399 20.0867 9.48809 20.0867C9.05744 20.0867 8.63482 20.0354 8.21953 19.9369C7.80501 19.8377 7.40804 19.6868 7.02936 19.4868C6.65068 19.2872 6.34604 19.0085 6.11527 18.6526C5.88381 18.2945 5.76809 17.8832 5.76809 17.4221C5.76809 16.9384 5.89919 16.5179 6.16288 16.1609C6.42508 15.8035 6.76934 15.5332 7.19564 15.3493C7.62044 15.1643 8.05108 15.0332 8.48759 14.9556C8.9241 14.8758 9.36869 14.8358 9.82064 14.8358C10.0301 14.8358 10.1926 14.8476 10.3084 14.8685C10.3297 14.8787 10.4505 14.9655 10.6709 15.1292C10.8914 15.2915 11.0283 15.3915 11.0811 15.4285ZM10.9237 10.7139C10.5765 11.1292 10.0924 11.3368 9.47271 11.3368C8.9168 11.3368 8.4275 11.1134 8.00713 10.6659C7.58527 10.2195 7.28421 9.71304 7.10038 9.14573C6.91581 8.57813 6.82354 8.02147 6.82354 7.47473C6.82354 6.83281 6.99208 6.28636 7.3289 5.83523C7.6658 5.38291 8.14917 5.15626 8.77911 5.15626C9.33575 5.15626 9.8279 5.39242 10.2527 5.86673C10.679 6.33946 10.9844 6.87047 11.1676 7.45898C11.3514 8.04675 11.4429 8.60881 11.4429 9.14573C11.4429 9.77604 11.2693 10.2993 10.9237 10.7139Z" fill="#71AFBD"/>
</svg>
